<?xml version="1.0" encoding="UTF-8" standalone="no"?>
<!-- Uploaded to: SVG Repo, www.svgrepo.com, Generator: SVG Repo Mixer Tools -->

<svg
   aria-label="Arch Linux"
   role="img"
   viewBox="0 0 512 512"
   version="1.1"
   id="svg6"
   sodipodi:docname="arch.svg"
   inkscape:version="1.2.2 (b0a8486541, 2022-12-01)"
   xmlns:inkscape="http://www.inkscape.org/namespaces/inkscape"
   xmlns:sodipodi="http://sodipodi.sourceforge.net/DTD/sodipodi-0.dtd"
   xmlns="http://www.w3.org/2000/svg"
   xmlns:svg="http://www.w3.org/2000/svg">
  <defs
     id="defs10" />
  <sodipodi:namedview
     id="namedview8"
     pagecolor="#ffffff"
     bordercolor="#000000"
     borderopacity="0.25"
     inkscape:showpageshadow="2"
     inkscape:pageopacity="0.0"
     inkscape:pagecheckerboard="0"
     inkscape:deskcolor="#d1d1d1"
     showgrid="false"
     inkscape:zoom="0.85058594"
     inkscape:cx="-84.647531"
     inkscape:cy="310.37428"
     inkscape:window-width="1920"
     inkscape:window-height="1051"
     inkscape:window-x="0"
     inkscape:window-y="0"
     inkscape:window-maximized="1"
     inkscape:current-layer="svg6" />
  <path
     d="m 258.1359,17.256978 c -21.18207,52.955173 -34.79911,86.241282 -59.0072,137.683452 15.13006,16.64305 33.28612,34.79911 62.03321,54.46818 -31.77311,-12.10404 -52.95517,-25.72108 -68.08522,-39.33812 -31.7731,65.0592 -80.18926,155.8395 -177.021581,332.86108 75.650254,-45.39015 136.170451,-72.62423 192.151631,-83.21527 -3.02601,-10.59104 -4.53902,-21.18207 -4.53902,-33.28611 v -1.51301 c 1.51301,-49.92917 27.2341,-87.75429 57.49419,-84.72827 30.2601,1.51301 54.46818,43.87714 52.95518,93.8063 l -3.02601,25.72109 c 54.46817,10.59104 113.47537,39.33813 189.12562,81.70227 l -40.85114,-75.65026 c -19.66907,-15.13004 -40.85114,-34.7991 -83.21528,-57.49419 28.7471,7.56503 49.92917,16.64306 66.57223,25.72109 C 312.60409,153.42743 302.01305,121.65432 258.1359,15.743973 Z"
     fill="#1793d1"
     id="path4"
     style="stroke-width:1.513" />
</svg>
